# xmcd CD database file
#
# Track frame offsets:
#	150
#	14688
#	34443
#	53642
#	69050
#	87085
#	111540
#	126944
#	144497
#	174620
#
# Disc length: 2583 seconds
#
# Revision: 0
# Processed by: cddbd v1.5.1PL2 Copyright (c) Steve Scherf et al.
# Submitted via: CDex 1.51
#
DISCID=8b0a150a
DTITLE=Allison Moorer - The Hardest Part
DYEAR=2000
DGENRE=Country
TTITLE0=The Hardest Part 
TTITLE1=Day You Said Goodbye 
TTITLE2=It's Time I Tried 
TTITLE3=Best That I Can Do 
TTITLE4=Think It Over 
TTITLE5=Bring Me All Your Lovin' 
TTITLE6=Is It Worth It 
TTITLE7=Send Down An Angel 
TTITLE8=No Next Time 
TTITLE9=Feeling That Feeling Again 
EXTD=YEAR: 2000
EXTT0=
EXTT1=
EXTT2=
EXTT3=
EXTT4=
EXTT5=
EXTT6=
EXTT7=
EXTT8=
EXTT9=
PLAYORDER=
